<?xml version="1.0" standalone="no"?>
<!DOCTYPE svg PUBLIC "-//W3C//DTD SVG 20010904//EN"
 "http://www.w3.org/TR/2001/REC-SVG-20010904/DTD/svg10.dtd">
<svg version="1.0" xmlns="http://www.w3.org/2000/svg"
 width="280.000000pt" height="280.000000pt" viewBox="0 0 280.000000 280.000000"
 preserveAspectRatio="xMidYMid meet">
<metadata>
Created by potrace 1.14, written by Peter Selinger 2001-2017
</metadata>
<g transform="translate(0.000000,280.000000) scale(0.100000,-0.100000)"
fill="#000000" stroke="none">
<path d="M1165 2784 c-434 -76 -816 -358 -1015 -750 -43 -83 -95 -222 -115
-309 -45 -183 -45 -467 0 -650 131 -544 582 -965 1134 -1059 123 -21 339 -21
462 0 286 49 550 185 754 389 218 217 349 471 400 775 24 141 15 403 -20 545
-131 544 -582 965 -1134 1059 -116 20 -354 20 -466 0z m551 -58 c245 -61 443
-169 621 -339 201 -193 327 -411 394 -687 21 -84 23 -119 23 -300 0 -181 -2
-216 -23 -300 -67 -276 -193 -494 -394 -687 -180 -171 -375 -278 -626 -341
-98 -25 -122 -27 -311 -27 -189 0 -213 2 -311 27 -251 63 -446 170 -626 341
-201 193 -327 411 -394 687 -21 84 -23 119 -23 300 0 233 13 309 85 495 136
352 417 633 773 774 177 71 300 91 531 86 152 -3 196 -7 281 -29z"/>
<path d="M1343 2625 c-32 -90 -28 -113 11 -71 29 32 72 35 81 6 3 -11 15 -20
26 -20 10 0 19 1 19 3 0 2 -15 39 -34 83 -49 111 -64 111 -103 -1z m66 -7 c1
-5 -8 -8 -19 -8 -17 0 -18 3 -8 26 11 23 13 24 19 7 4 -10 8 -21 8 -25z"/>
<path d="M1168 2670 c-26 -27 -30 -36 -25 -68 7 -42 46 -82 80 -82 31 0 67 27
67 51 0 25 -18 24 -39 -3 -21 -26 -46 -19 -62 16 -23 50 14 104 50 73 17 -15
41 -12 41 5 0 17 -32 37 -58 38 -13 0 -37 -14 -54 -30z"/>
<path d="M1526 2688 c-17 -56 -26 -142 -16 -152 15 -15 30 10 30 51 0 55 19
47 22 -9 4 -72 29 -78 53 -13 21 54 38 70 24 23 -13 -48 -11 -78 6 -78 8 0 15
2 15 4 0 2 7 40 15 83 8 43 15 79 15 81 0 1 -13 2 -29 2 -24 0 -31 -7 -49 -47
l-20 -47 -7 57 c-7 52 -10 57 -31 57 -14 0 -26 -6 -28 -12z"/>
<path d="M1736 2583 c-31 -37 -56 -71 -56 -75 0 -14 39 -8 47 7 14 24 73 -2
73 -32 0 -17 6 -23 21 -23 15 0 19 4 15 16 -3 9 -6 47 -6 84 0 58 -3 71 -19
80 -17 9 -27 1 -75 -57z m62 -18 c2 -27 -4 -30 -27 -16 -12 8 -12 12 -2 25 19
22 26 20 29 -9z"/>
<path d="M880 2603 c-62 -23 -78 -90 -34 -142 34 -41 81 -42 125 -3 31 28 31
28 15 60 -19 37 -18 37 -57 17 -29 -16 -31 -42 -2 -31 25 10 35 -5 17 -25 -21
-24 -46 -24 -66 -1 -41 47 -27 94 27 90 43 -3 56 9 31 28 -21 15 -31 16 -56 7z"/>
<path d="M1889 2519 l-37 -70 22 -14 c45 -29 76 -39 87 -28 8 8 2 16 -22 28
-19 10 -35 19 -37 20 -2 2 10 30 27 63 16 33 27 62 24 66 -16 16 -31 1 -64
-65z"/>
<path d="M726 2522 c-3 -5 6 -25 19 -45 14 -20 25 -38 25 -41 0 -3 -25 5 -56
19 -53 24 -74 25 -74 5 0 -13 83 -140 91 -140 20 0 17 23 -6 60 -14 22 -23 40
-20 40 3 0 27 -11 54 -25 39 -19 51 -22 64 -12 13 10 9 21 -29 80 -42 64 -57
77 -68 59z"/>
<path d="M1234 2485 c-284 -44 -538 -195 -708 -422 -383 -510 -261 -1225 269
-1578 480 -320 1133 -208 1479 252 383 510 261 1225 -269 1578 -226 151 -503
212 -771 170z m344 -46 c328 -51 627 -276 771 -580 216 -454 86 -1000 -310
-1299 -149 -112 -348 -191 -525 -208 l-84 -8 42 44 c61 62 177 115 343 157
165 42 233 73 286 133 42 49 91 163 116 274 21 93 6 182 -43 264 -55 92 -69
145 -69 264 1 122 23 215 88 380 23 58 43 108 45 111 1 4 -73 68 -166 143
l-169 136 -497 0 -497 0 -175 -137 c-96 -75 -173 -139 -172 -142 2 -3 24 -49
50 -101 55 -112 75 -169 94 -268 28 -145 15 -258 -42 -377 -38 -80 -57 -180
-48 -251 11 -86 45 -208 70 -252 48 -82 120 -120 341 -182 173 -48 252 -84
324 -149 l52 -47 -99 8 c-361 27 -696 258 -853 589 -216 454 -86 1000 310
1299 233 175 520 245 817 199z m-488 -356 c-1 -44 -32 -199 -40 -201 -5 -2
-10 -8 -10 -13 0 -6 5 -7 12 -3 8 5 9 0 5 -17 -4 -13 -7 -36 -7 -51 l0 -28
-109 0 -109 0 -6 28 c-10 50 -25 156 -32 225 l-6 67 151 0 c83 0 151 -3 151
-7z m248 -57 c-4 -45 -12 -73 -27 -92 -17 -21 -21 -41 -21 -95 l0 -69 -80 0
c-95 0 -89 -17 -60 175 11 72 20 133 20 138 0 4 39 7 86 7 l87 0 -5 -64z m92
54 c0 -5 -9 -10 -20 -10 -11 0 -20 5 -20 10 0 6 9 10 20 10 11 0 20 -4 20 -10z
m204 -7 c2 -10 12 -56 22 -101 15 -72 15 -85 3 -93 -12 -7 -11 -9 2 -9 11 0
19 -12 23 -36 4 -19 10 -42 13 -50 4 -11 -12 -14 -90 -14 l-95 0 -4 46 c-2 33
1 48 12 55 13 7 12 8 -2 9 -10 0 -18 7 -18 15 0 9 -6 28 -14 43 -7 15 -16 55
-19 90 l-7 62 84 0 c72 0 85 -3 90 -17z m378 12 c6 -6 -15 -172 -33 -257 l-12
-58 -93 0 c-101 0 -95 -4 -109 69 -5 23 -4 31 4 27 6 -4 11 -2 11 3 0 6 -6 11
-13 11 -9 0 -19 31 -30 90 -10 50 -20 97 -23 105 -5 13 15 15 143 15 82 0 152
-2 155 -5z m-588 -50 c-4 -15 -1 -32 6 -40 11 -13 8 -15 -20 -15 -31 0 -32 1
-17 18 10 11 13 22 7 32 -11 17 -4 30 16 30 10 0 13 -7 8 -25z m39 -93 c9 -10
19 -46 23 -87 4 -39 13 -82 20 -97 22 -42 17 -47 -23 -26 -51 26 -171 22 -202
-6 -12 -11 -21 -15 -21 -9 0 5 11 19 25 31 21 18 25 31 25 78 0 45 5 63 28 95
24 34 32 39 68 39 27 0 46 -6 57 -18z m3 -218 c18 -9 36 -25 39 -35 8 -24 -13
-52 -32 -45 -8 3 -12 2 -9 -3 15 -24 -119 -29 -163 -6 -40 20 -46 43 -20 71
34 36 128 45 185 18z m-441 -71 c-13 -111 -4 -103 -116 -103 l-99 0 0 80 0 80
111 0 111 0 -7 -57z m209 42 c-9 -23 21 -61 64 -80 32 -15 38 -21 34 -41 -4
-24 -6 -24 -119 -24 l-115 0 7 67 c10 95 9 93 76 93 48 0 57 -3 53 -15z m486
-42 c6 -32 14 -68 17 -80 5 -23 5 -23 -126 -23 l-131 0 0 31 c0 21 10 40 30
61 17 16 30 38 30 49 0 17 8 19 84 19 l85 0 11 -57z m280 -23 l0 -81 -87 3
-87 3 -16 78 -17 77 104 0 103 0 0 -80z m70 -164 c0 -40 3 -88 6 -105 l7 -31
-162 0 c-101 0 -161 4 -161 10 0 10 13 14 43 11 9 -1 17 4 17 13 0 9 5 16 10
16 6 0 10 -6 10 -13 0 -7 11 -14 25 -15 14 -1 25 3 25 8 0 6 5 10 11 10 5 0 7
-4 4 -10 -3 -5 1 -10 9 -10 15 0 15 6 7 49 -1 2 -7 -2 -15 -8 -10 -8 -16 -9
-21 -1 -3 6 -11 8 -16 4 -9 -5 -150 -8 -174 -4 -5 1 -23 3 -40 5 -16 1 -45 5
-62 10 -32 7 -33 7 -33 -26 0 -19 4 -29 8 -23 14 20 42 24 43 6 1 -16 2 -16 6
1 5 21 23 23 23 2 0 -11 11 -15 37 -15 25 0 34 -3 27 -10 -7 -7 -175 -9 -484
-8 l-475 3 5 45 c3 25 4 71 3 103 l-2 57 659 0 660 0 0 -74z m-480 -76 c0 -5
-5 -10 -11 -10 -5 0 -7 5 -4 10 3 6 8 10 11 10 2 0 4 -4 4 -10z m190 -20 c0
-5 -4 -10 -10 -10 -5 0 -10 5 -10 10 0 6 5 10 10 10 6 0 10 -4 10 -10z m-30
-25 c0 -8 -7 -15 -15 -15 -26 0 -18 20 13 29 1 1 2 -6 2 -14z m44 -24 c28 -1
29 -1 11 -21 -22 -24 -67 -26 -89 -4 -21 21 -14 30 21 28 15 -1 41 -3 57 -3z
m-1034 -26 c0 -7 -7 -15 -15 -19 -16 -6 -19 3 -9 28 7 18 24 12 24 -9z m60 15
c-20 -13 -33 -13 -25 0 3 6 14 10 23 10 15 0 15 -2 2 -10z m87 4 c-3 -3 -12
-4 -19 -1 -8 3 -5 6 6 6 11 1 17 -2 13 -5z m226 -1 c-7 -2 -19 -2 -25 0 -7 3
-2 5 12 5 14 0 19 -2 13 -5z m89 -38 c3 -38 0 -45 -15 -45 -15 0 -16 3 -7 21
10 18 9 20 -12 17 -15 -2 -23 -9 -22 -21 1 -9 -2 -17 -7 -17 -10 0 -11 7 -3
37 4 13 10 20 16 17 12 -7 39 16 32 27 -3 5 -1 9 4 9 6 0 12 -20 14 -45z m51
38 c-7 -2 -19 -2 -25 0 -7 3 -2 5 12 5 14 0 19 -2 13 -5z m54 1 c-3 -3 -12 -4
-19 -1 -8 3 -5 6 6 6 11 1 17 -2 13 -5z m83 -11 c0 -13 -3 -13 -15 -3 -9 8
-15 9 -15 2 0 -6 5 -14 11 -17 6 -5 3 -13 -10 -22 -12 -8 -19 -19 -16 -24 4
-5 -1 -9 -10 -9 -22 0 -37 42 -19 53 8 4 14 14 14 21 0 8 13 13 30 14 21 0 30
-4 30 -15z m125 -3 c-28 -31 -105 -23 -105 12 0 4 28 8 62 8 60 0 61 0 43 -20z
m145 12 c0 -35 -77 -43 -105 -12 -18 20 -17 20 43 20 34 0 62 -4 62 -8z m264
-7 c-8 -21 -51 -30 -80 -16 -40 18 -27 31 31 31 44 0 53 -3 49 -15z m127 -5
c-13 -11 -31 -20 -41 -20 -10 0 -28 9 -41 20 l-24 19 65 0 65 0 -24 -19z
m-1061 -52 c0 -12 -7 -18 -21 -18 -17 0 -19 3 -10 14 8 10 8 16 -2 25 -8 6
-16 10 -18 8 -2 -1 3 4 11 11 12 10 17 10 27 -5 7 -9 13 -25 13 -35z m74 27
c-6 -26 1 -31 25 -16 7 5 10 14 7 20 -4 6 -1 11 7 11 13 0 13 -8 0 -60 -15
-60 -16 -60 -52 -60 -24 0 -31 3 -22 9 11 7 11 10 0 17 -19 12 -32 12 -46 1
-7 -5 -13 -6 -13 -2 0 4 -7 2 -15 -5 -8 -7 -15 -17 -15 -22 0 -6 8 -4 17 3 13
11 12 7 -3 -16 -12 -16 -76 -110 -143 -208 -68 -98 -121 -181 -118 -183 3 -3
15 9 27 25 l21 31 130 0 c109 0 129 -2 129 -15 0 -13 -34 -164 -46 -202 -2 -7
-10 -10 -19 -7 -12 5 -13 10 -6 17 18 18 13 29 -11 25 -13 -2 -22 -9 -20 -16
3 -15 1 -15 -34 -2 -25 10 -26 12 -10 29 14 15 14 20 3 24 -22 8 -39 -7 -31
-28 7 -17 4 -16 -32 5 -56 33 -83 60 -105 102 l-18 36 120 162 c67 88 119 163
116 166 -2 3 -26 -24 -53 -60 -40 -55 -53 -66 -77 -66 -24 0 -27 3 -18 14 8
10 8 16 -2 25 -16 13 -27 5 -27 -21 0 -12 -8 -18 -22 -19 -13 -1 -35 -3 -50
-5 -34 -3 -36 11 -6 43 21 22 13 34 -9 12 -7 -7 -10 -3 -10 15 0 13 6 27 15
31 12 4 13 3 2 -10 -7 -8 -8 -15 -2 -15 5 0 15 7 22 15 7 8 9 15 5 15 -5 0 0
9 9 19 10 11 16 24 13 28 -3 5 3 9 13 9 18 0 18 -2 -2 -23 -34 -37 -11 -27 42
18 49 41 57 69 20 69 -25 0 -35 -18 -20 -35 11 -13 5 -15 -39 -15 -39 0 -51 4
-51 15 0 18 17 20 23 3 3 -10 7 -10 20 1 23 19 21 31 -5 31 -20 1 -18 4 12 20
43 23 50 24 50 5 0 -19 14 -19 29 -1 9 11 9 16 0 22 -9 5 -7 11 6 20 15 12 20
11 30 -3 11 -15 15 -15 29 -3 15 12 17 11 14 -11 -2 -13 -7 -30 -11 -36 -6
-10 1 -13 25 -13 19 0 28 -4 21 -8 -7 -4 -9 -13 -4 -20 10 -17 44 -3 37 15 -4
10 1 14 17 13 12 -1 24 -1 27 0 17 8 76 6 81 -3 9 -13 29 0 29 19 0 8 -9 14
-19 14 -24 0 -31 19 -17 43 15 23 18 21 10 -8z m216 -5 c0 -5 -9 -12 -20 -15
-11 -4 -18 -11 -15 -16 4 -5 1 -9 -4 -9 -16 0 -13 18 7 38 17 19 32 19 32 2z
m-554 -15 c-11 -8 -25 -15 -30 -15 -6 1 0 7 14 15 32 19 40 18 16 0z m993 6
c23 -15 -5 -41 -44 -41 -35 0 -77 34 -53 43 22 9 82 7 97 -2z m151 2 c0 -16
-35 -43 -57 -43 -32 0 -63 17 -63 35 0 12 14 15 60 15 33 0 60 -3 60 -7z m130
-13 c-21 -38 -110 -35 -110 5 0 12 13 15 60 15 57 0 60 -1 50 -20z m98 -5 c10
-22 9 -25 -9 -25 -27 0 -55 16 -63 35 -4 12 2 15 28 15 25 0 35 -6 44 -25z
m-1168 0 c0 -9 -9 -15 -21 -15 -18 0 -19 2 -9 15 7 8 16 15 21 15 5 0 9 -7 9
-15z m530 7 c0 -14 -23 -32 -42 -32 -11 0 -18 7 -18 20 0 16 7 20 30 20 17 0
30 -4 30 -8z m123 -13 c-23 -24 -65 -28 -88 -9 -27 23 -16 30 47 30 l62 0 -21
-21z m-309 -34 c-16 -11 -17 -14 -4 -18 8 -3 22 -8 30 -10 8 -3 -2 -6 -22 -6
-21 -1 -38 1 -38 4 0 14 45 65 48 55 2 -6 -4 -17 -14 -25z m-64 -22 c0 -16 3
-52 7 -81 3 -30 2 -52 -3 -51 -23 4 -32 -3 -27 -21 4 -15 11 -19 24 -15 13 4
19 1 19 -9 0 -13 -12 -16 -57 -16 -46 1 -54 3 -40 11 14 8 15 14 7 24 -8 10
-7 16 6 23 21 12 10 32 -17 32 -16 0 -18 -5 -13 -25 4 -16 2 -25 -6 -25 -7 0
-9 -8 -5 -20 5 -15 2 -20 -10 -20 -10 0 -15 6 -12 13 3 7 13 57 23 110 l18 97
43 0 c40 0 43 -2 43 -27z m180 2 c0 -16 -6 -25 -15 -25 -8 0 -18 0 -22 -1 -4
0 -9 5 -12 12 -2 7 1 9 8 4 8 -4 14 1 18 14 7 29 23 26 23 -4z m410 14 c0 -14
-44 -39 -67 -39 -30 0 -60 30 -41 42 16 10 108 8 108 -3z m128 -1 c-3 -7 -16
-20 -30 -28 -21 -11 -31 -12 -52 -2 -14 6 -26 18 -26 27 0 12 13 15 56 15 40
0 55 -3 52 -12z m140 0 c-3 -7 -17 -19 -31 -26 -22 -11 -32 -11 -54 0 -50 24
-40 38 27 38 45 0 61 -3 58 -12z m62 -3 c7 -9 10 -19 6 -22 -8 -9 -38 9 -44
25 -5 17 23 15 38 -3z m-615 -15 c-28 -31 -105 -23 -105 12 0 4 28 8 62 8 60
0 61 0 43 -20z m145 10 c0 -13 -34 -30 -63 -30 -13 0 -32 9 -42 20 -18 20 -17
20 43 20 34 0 62 -4 62 -10z m-660 -10 c0 -5 -5 -10 -11 -10 -5 0 -7 5 -4 10
3 6 8 10 11 10 2 0 4 -4 4 -10z m-337 -50 c-3 -11 -9 -17 -14 -15 -10 7 -1 35
11 35 5 0 6 -9 3 -20z m417 12 c0 -4 -6 -32 -14 -62 -8 -30 -24 -99 -36 -152
l-22 -98 -129 0 c-144 0 -140 -4 -86 68 14 18 27 28 29 22 4 -13 38 -3 38 11
0 5 -7 12 -15 15 -12 5 -12 9 2 31 10 15 19 20 23 13 8 -14 42 -1 37 14 -2 6
-11 10 -20 10 -14 -1 -14 1 0 22 16 25 33 32 33 13 0 -6 7 -9 15 -6 19 8 31
-11 16 -26 -13 -13 -15 -47 -3 -47 4 0 14 6 20 12 10 10 15 10 22 -1 7 -12 11
-12 24 -2 23 19 2 45 -25 30 -20 -10 -26 0 -9 17 12 12 2 47 -11 38 -5 -3 -18
1 -29 9 -19 13 -19 14 3 45 20 29 26 32 80 32 31 0 57 -4 57 -8z m240 -6 c0
-8 -9 -18 -21 -21 -15 -5 -17 -10 -9 -20 8 -10 5 -14 -15 -17 -20 -4 -25 -1
-25 14 0 11 4 17 9 13 6 -3 15 3 20 14 10 17 7 20 -17 24 -19 3 -14 4 16 6 30
1 42 -3 42 -13z m44 -60 c14 -41 26 -80 25 -88 0 -7 -11 17 -24 54 -33 94 -37
108 -32 108 2 0 16 -33 31 -74z m96 62 c0 -8 -41 -38 -52 -38 -10 0 -11 34 -2
43 9 9 54 5 54 -5z m140 2 c0 -5 -11 -17 -25 -26 -36 -23 -94 -6 -95 29 0 4
27 7 60 7 33 0 60 -4 60 -10z m128 -2 c-3 -7 -17 -20 -31 -28 -24 -13 -30 -13
-54 0 -49 27 -40 40 27 40 45 0 61 -3 58 -12z m135 -4 c-9 -25 -51 -36 -81
-22 -48 24 -39 38 27 38 51 0 59 -2 54 -16z m130 -5 c-23 -24 -65 -28 -88 -9
-27 23 -16 30 47 30 l62 0 -21 -21z m147 13 c0 -35 -77 -43 -105 -12 -18 20
-17 20 43 20 34 0 62 -4 62 -8z m-753 -50 l2 -37 -14 30 c-13 29 -12 45 3 45
4 0 8 -17 9 -38z m-39 -42 c5 -19 13 -43 17 -53 4 -10 4 -17 -1 -16 -22 4 -34
-2 -34 -16 0 -18 26 -20 36 -3 8 13 22 -14 23 -46 1 -14 -2 -16 -12 -7 -16 13
-27 5 -27 -21 0 -15 5 -18 21 -13 17 6 20 3 17 -17 -3 -21 -8 -23 -53 -23
l-50 0 -12 75 c-14 92 -16 143 -4 135 5 -3 19 9 31 26 25 34 34 30 48 -21z
m722 41 c0 -2 -7 -13 -17 -23 -20 -23 -51 -23 -82 -1 -23 16 -23 17 -5 24 20
8 104 9 104 0z m98 -18 c4 -28 -22 -31 -56 -7 -33 23 -27 36 16 32 30 -2 38
-7 40 -25z m-931 -15 c-3 -7 -5 -2 -5 12 0 14 2 19 5 13 2 -7 2 -19 0 -25z
m270 6 c-29 -25 -55 -25 -84 -2 -26 20 -12 28 50 28 l62 -1 -28 -25z m153 18
c0 -35 -77 -43 -105 -12 -18 20 -17 20 43 20 34 0 62 -4 62 -8z m125 -12 c-28
-31 -105 -23 -105 12 0 4 28 8 62 8 60 0 61 0 43 -20z m143 8 c-7 -20 -92 -22
-108 -3 -11 13 -5 15 50 15 45 0 61 -3 58 -12z m-36 -40 c-18 -18 -15 -28 8
-28 27 0 26 -27 -5 -72 -23 -34 -27 -36 -57 -27 -18 5 -33 9 -34 9 -10 0 -24
63 -18 84 8 33 29 45 79 46 30 0 36 -3 27 -12z m-183 -29 c-31 -24 -61 -24
-83 0 -17 18 -17 19 0 23 9 1 38 1 62 -1 l45 -3 -24 -19z m60 -16 c3 -59 15
-81 52 -97 l29 -12 -46 -35 c-26 -19 -50 -33 -55 -31 -5 1 -28 -8 -52 -20 -23
-13 -57 -25 -76 -28 -40 -6 -53 -27 -19 -32 19 -3 20 -4 6 -10 -9 -4 -24 -1
-33 6 -15 11 -12 17 31 59 25 26 52 47 59 47 17 0 23 18 20 57 -2 18 1 31 5
28 4 -2 21 10 38 26 25 25 31 37 27 60 -3 16 -2 29 3 29 5 0 9 -21 11 -47z
m231 32 c0 -9 -12 -20 -26 -25 -34 -13 -34 -13 -34 15 0 21 5 25 30 25 20 0
30 -5 30 -15z m138 3 c-3 -7 -16 -19 -30 -26 -30 -14 -72 -3 -81 22 -5 14 3
16 54 16 44 0 60 -3 57 -12z m-858 -273 c17 -143 33 -270 35 -282 4 -16 1 -21
-8 -17 -9 3 -21 81 -40 277 -26 257 -30 315 -22 292 2 -5 18 -127 35 -270z
m180 271 c0 -3 -7 -12 -16 -20 -22 -22 -44 -20 -44 4 0 16 7 20 30 20 17 0 30
-2 30 -4z m125 -16 c-20 -22 -55 -26 -86 -10 -35 19 -20 30 43 30 60 0 61 0
43 -20z m-518 -22 c-3 -7 -5 -2 -5 12 0 14 2 19 5 13 2 -7 2 -19 0 -25z m673
-2 c0 -2 -8 -10 -17 -17 -16 -13 -17 -12 -4 4 13 16 21 21 21 13z m-234 -42
c-28 -20 -70 -17 -90 5 -18 19 -17 20 35 23 63 4 83 -7 55 -28z m154 29 c0
-17 -36 -43 -60 -43 -31 0 -70 35 -48 43 19 8 108 8 108 0z m403 -9 c-9 -25
-51 -36 -81 -22 -48 24 -39 38 27 38 51 0 59 -2 54 -16z m107 8 c0 -5 -6 -16
-12 -25 -11 -14 -17 -15 -37 -4 -41 21 -37 37 8 37 23 0 41 -4 41 -8z m-1518
-28 c-4 -24 -3 -25 16 -13 16 10 18 16 10 26 -8 10 -6 13 10 13 13 0 19 -6 18
-17 0 -10 6 -18 14 -18 8 0 14 8 14 18 -1 12 6 17 27 17 l29 0 -58 -79 c-31
-44 -59 -80 -62 -80 -7 -1 -30 106 -30 137 0 12 4 22 9 22 4 0 6 -12 3 -26z
m405 4 c-3 -8 -6 -5 -6 6 -1 11 2 17 5 13 3 -3 4 -12 1 -19z m177 -15 c9 -59
7 -115 -4 -108 -15 9 -30 -4 -23 -21 3 -9 12 -12 24 -9 16 6 19 1 19 -32 0
-21 3 -49 7 -62 4 -14 2 -22 -3 -18 -16 10 -35 -8 -28 -27 5 -12 10 -14 19 -6
10 8 14 2 17 -25 l4 -35 -134 0 c-123 0 -134 1 -130 18 3 9 20 95 39 189 l34
173 76 0 76 0 7 -37z m-215 -175 c-29 -144 -48 -206 -49 -168 -1 24 74 342 78
331 2 -6 -11 -79 -29 -163z m436 153 c5 -9 -31 -41 -47 -41 -10 0 -11 34 -1
43 10 10 41 8 48 -2z m135 2 c0 -15 -35 -43 -54 -43 -27 0 -68 28 -61 41 7 10
115 13 115 2z m60 -6 c0 -21 -12 -28 -27 -16 -19 16 -16 29 7 29 11 0 20 -6
20 -13z m350 5 c0 -16 -25 -32 -51 -32 -38 0 -59 10 -59 26 0 10 15 14 55 14
30 0 55 -4 55 -8z m134 -7 c-13 -32 -101 -30 -112 3 -3 9 13 12 57 12 50 0 59
-3 55 -15z m-473 -42 c-12 -20 -14 -14 -5 12 4 9 9 14 11 11 3 -2 0 -13 -6
-23z m-141 -12 c0 -15 -42 -41 -65 -41 -28 0 -60 24 -51 38 9 14 116 16 116 3z
m110 -5 c0 -7 -7 -19 -15 -26 -19 -16 -69 0 -73 23 -3 14 5 17 42 17 32 0 46
-4 46 -14z m289 -2 c-29 -36 -81 -38 -72 -3 4 15 14 19 45 19 36 0 39 -2 27
-16z m139 4 c-11 -33 -99 -35 -112 -3 -4 12 5 15 55 15 44 0 60 -3 57 -12z
m72 -8 c-11 -21 -35 -18 -44 6 -4 10 3 14 25 14 26 0 29 -2 19 -20z m-740 -39
c0 -12 -7 -18 -17 -17 -10 0 -19 -7 -21 -17 -3 -15 0 -18 17 -12 18 6 21 2 21
-27 0 -23 -3 -29 -9 -19 -11 16 -31 6 -31 -16 0 -10 6 -14 19 -10 16 4 19 0
19 -24 -1 -24 -4 -27 -15 -17 -10 8 -17 8 -25 0 -15 -15 0 -34 23 -27 17 6 19
1 19 -36 0 -33 -3 -39 -13 -30 -16 13 -27 5 -27 -21 0 -21 11 -23 28 -6 9 9
12 -4 12 -61 l0 -73 -28 24 c-26 21 -30 33 -41 122 -13 97 -13 99 8 115 16 12
19 19 10 28 -6 6 -17 9 -24 7 -8 -4 -14 12 -18 48 -11 91 -13 88 43 88 42 0
50 -3 50 -19z m591 -23 c-13 -10 -32 -18 -43 -18 -24 0 -58 17 -58 30 0 10 73
17 104 11 18 -4 18 -5 -3 -23z m129 23 c0 -24 -14 -41 -34 -41 -27 0 -68 28
-61 41 8 12 95 12 95 0z m-672 -21 c-7 -11 -18 -20 -25 -20 -7 0 -13 9 -13 20
0 15 7 20 25 20 23 0 24 -2 13 -20z m138 5 c-20 -15 -63 -20 -90 -9 -34 13
-13 24 47 24 57 -1 60 -2 43 -15z m269 -5 c-21 -23 -77 -27 -94 -7 -17 21 -3
27 57 27 54 0 55 0 37 -20z m-365 -72 c0 -11 -38 -10 -61 2 -24 13 -25 27 -1
32 17 4 61 -21 62 -34z m310 33 c0 -13 -41 -41 -60 -41 -22 0 -61 29 -55 41 8
12 115 12 115 0z m130 -1 c0 -5 -11 -17 -25 -26 -29 -19 -78 -8 -83 19 -3 14
6 17 52 17 31 0 56 -4 56 -10z m138 -2 c-3 -7 -17 -19 -31 -26 -22 -11 -32
-11 -54 0 -50 24 -40 38 27 38 45 0 61 -3 58 -12z m-422 -23 c-11 -8 -25 -15
-30 -15 -6 0 -2 7 8 15 11 8 25 15 30 15 6 0 2 -7 -8 -15z m404 -30 c-7 -8
-17 -12 -23 -8 -6 4 -3 9 9 14 27 11 28 11 14 -6z m-590 -4 c0 -6 -10 -17 -22
-26 -24 -16 -35 -7 -24 20 6 16 46 21 46 6z m121 -22 c-13 -10 -28 -19 -35
-19 -6 0 3 11 19 24 17 13 32 22 35 19 3 -2 -6 -13 -19 -24z m147 19 c-3 -7
-17 -19 -31 -26 -22 -11 -32 -11 -54 0 -50 24 -40 38 27 38 45 0 61 -3 58 -12z
m136 -2 c-9 -23 -58 -36 -84 -23 -46 23 -35 37 29 37 48 0 59 -3 55 -14z m131
-6 c-28 -31 -105 -23 -105 12 0 4 28 8 62 8 60 0 61 0 43 -20z m-488 -66 c-29
-25 -55 -25 -84 -2 -23 19 -13 24 50 25 l62 2 -28 -25z m153 18 c0 -35 -77
-43 -105 -12 -18 20 -17 20 43 20 34 0 62 -4 62 -8z m140 4 c0 -3 -7 -12 -16
-20 -27 -28 -104 -16 -104 16 0 4 27 8 60 8 33 0 60 -2 60 -4z m130 -4 c0 -5
-19 -14 -41 -21 -38 -12 -44 -11 -63 8 l-20 21 62 0 c34 0 62 -4 62 -8z m-776
-67 c7 -18 3 -18 -54 -1 l-45 15 46 0 c33 1 49 -3 53 -14z m129 -27 c3 -24 4
-44 3 -46 -2 -2 -29 9 -59 24 -40 20 -53 31 -47 39 6 7 7 15 3 18 -3 4 16 7
44 7 l50 0 6 -42z m177 32 c0 -9 -31 -30 -44 -30 -3 0 -6 9 -6 20 0 15 7 20
25 20 14 0 25 -4 25 -10z m125 -10 c-28 -31 -105 -23 -105 12 0 4 28 8 62 8
60 0 61 0 43 -20z m135 11 c-33 -20 -86 -23 -99 -7 -12 14 -7 16 50 16 42 -1
59 -4 49 -9z m-140 -51 c-8 -5 -22 -10 -30 -10 -13 0 -13 1 0 10 8 5 22 10 30
10 13 0 13 -1 0 -10z m-65 -20 c-20 -22 -55 -26 -86 -10 -35 19 -20 30 43 30
60 0 61 0 43 -20z m-55 -37 c0 -10 -32 -43 -42 -43 -10 0 -11 34 -1 43 8 9 43
9 43 0z"/>
<path d="M855 1870 c4 -6 11 -8 16 -5 14 9 11 15 -7 15 -8 0 -12 -5 -9 -10z"/>
<path d="M895 1870 c3 -5 8 -10 11 -10 2 0 4 5 4 10 0 6 -5 10 -11 10 -5 0 -7
-4 -4 -10z"/>
<path d="M930 1869 c0 -5 5 -7 10 -4 6 3 10 8 10 11 0 2 -4 4 -10 4 -5 0 -10
-5 -10 -11z"/>
<path d="M965 1870 c3 -5 8 -10 11 -10 2 0 4 5 4 10 0 6 -5 10 -11 10 -5 0 -7
-4 -4 -10z"/>
<path d="M1185 1870 c3 -5 8 -10 11 -10 2 0 4 5 4 10 0 6 -5 10 -11 10 -5 0
-7 -4 -4 -10z"/>
<path d="M1220 1869 c0 -5 5 -7 10 -4 6 3 10 8 10 11 0 2 -4 4 -10 4 -5 0 -10
-5 -10 -11z"/>
<path d="M1255 1870 c3 -5 8 -10 11 -10 2 0 4 5 4 10 0 6 -5 10 -11 10 -5 0
-7 -4 -4 -10z"/>
<path d="M1545 1870 c3 -5 8 -10 11 -10 2 0 4 5 4 10 0 6 -5 10 -11 10 -5 0
-7 -4 -4 -10z"/>
<path d="M1580 1869 c0 -5 5 -7 10 -4 6 3 10 8 10 11 0 2 -4 4 -10 4 -5 0 -10
-5 -10 -11z"/>
<path d="M1800 1869 c0 -5 5 -7 10 -4 6 3 10 8 10 11 0 2 -4 4 -10 4 -5 0 -10
-5 -10 -11z"/>
<path d="M1835 1870 c3 -5 8 -10 11 -10 2 0 4 5 4 10 0 6 -5 10 -11 10 -5 0
-7 -4 -4 -10z"/>
<path d="M1870 1869 c0 -5 5 -7 10 -4 6 3 10 8 10 11 0 2 -4 4 -10 4 -5 0 -10
-5 -10 -11z"/>
<path d="M1905 1870 c3 -5 8 -10 11 -10 2 0 4 5 4 10 0 6 -5 10 -11 10 -5 0
-7 -4 -4 -10z"/>
<path d="M882 1508 c-20 -20 -13 -39 18 -49 17 -6 30 -15 30 -20 0 -13 -34
-11 -48 3 -17 17 -28 2 -12 -17 7 -8 23 -15 36 -15 15 0 24 -6 24 -16 0 -13
-3 -14 -14 -5 -10 9 -16 8 -26 -4 -7 -9 -10 -19 -6 -23 11 -10 135 -12 142 -1
3 5 11 9 17 9 7 0 6 -4 -3 -10 -11 -8 -7 -10 18 -8 26 2 32 6 32 25 0 13 -4
23 -10 23 -5 0 -10 -8 -10 -17 0 -13 -3 -14 -8 -6 -5 7 -24 11 -44 10 -20 -2
-35 0 -32 5 7 11 -3 10 -26 -2 -14 -7 -19 -5 -23 9 -2 11 0 24 6 30 14 14 -6
37 -40 46 -20 5 -23 9 -14 18 9 9 16 9 31 -1 11 -7 20 -9 20 -4 0 12 -22 32
-35 32 -6 0 -16 -5 -23 -12z"/>
<path d="M954 1508 c-3 -4 2 -8 10 -8 12 0 16 -10 16 -39 0 -22 5 -43 10 -46
6 -4 10 12 10 39 0 34 4 46 15 46 8 0 15 4 15 9 0 11 -69 10 -76 -1z"/>
<path d="M1413 1513 c-15 -6 -18 -89 -3 -98 6 -3 10 3 10 14 0 31 17 33 39 5
23 -29 39 -27 23 2 -7 12 -6 24 2 36 18 31 -30 58 -71 41z m52 -28 c0 -5 -10
-11 -22 -13 -16 -2 -23 2 -23 13 0 11 7 15 23 13 12 -2 22 -7 22 -13z"/>
<path d="M1862 1508 c-25 -25 0 -80 29 -62 8 4 9 3 5 -5 -5 -7 -16 -9 -28 -5
-15 4 -19 2 -16 -7 7 -22 40 -23 55 -3 18 25 16 58 -5 77 -22 20 -25 20 -40 5z
m34 -19 c8 -14 -11 -33 -25 -25 -11 7 -4 36 9 36 5 0 12 -5 16 -11z"/>
<path d="M1039 1464 c-19 -45 -17 -77 2 -41 13 22 38 22 55 0 12 -16 13 -16
14 -2 0 25 -29 89 -40 89 -6 0 -20 -21 -31 -46z m41 5 c0 -5 -4 -9 -10 -9 -5
0 -10 7 -10 16 0 8 5 12 10 9 6 -3 10 -10 10 -16z"/>
<path d="M1200 1459 c0 -31 4 -48 10 -44 6 3 10 16 10 28 1 19 3 18 14 -8 l14
-30 15 35 16 35 1 -33 c0 -20 4 -31 10 -27 6 3 10 26 10 51 0 54 -22 60 -40
12 l-13 -33 -10 33 c-16 51 -37 41 -37 -19z"/>
<path d="M1325 1474 c-18 -43 -21 -80 -4 -51 5 9 17 17 26 17 9 0 22 -8 29
-17 12 -16 13 -16 14 -2 0 24 -29 89 -40 89 -5 0 -17 -16 -25 -36z m35 -4 c0
-5 -4 -10 -10 -10 -5 0 -10 5 -10 10 0 6 5 10 10 10 6 0 10 -4 10 -10z"/>
<path d="M1500 1466 c0 -25 5 -48 10 -51 6 -4 10 13 10 44 0 28 -4 51 -10 51
-5 0 -10 -20 -10 -44z"/>
<path d="M1549 1464 c-19 -45 -17 -77 2 -41 13 22 38 22 55 0 8 -11 13 -13 14
-6 0 21 -32 93 -41 93 -6 0 -19 -21 -30 -46z m35 11 c3 -8 1 -15 -4 -15 -6 0
-10 7 -10 15 0 8 2 15 4 15 2 0 6 -7 10 -15z"/>
<path d="M1714 1495 c-17 -13 -17 -14 -1 -15 13 0 17 -8 17 -36 0 -21 4 -33
10 -29 12 7 14 95 2 95 -5 0 -17 -7 -28 -15z"/>
<path d="M1778 1485 c-4 -21 -1 -25 18 -25 15 0 24 -6 24 -16 0 -13 -6 -15
-27 -9 -27 6 -27 6 -10 -12 13 -14 21 -15 35 -7 27 17 22 57 -8 65 -25 6 -23
8 20 22 8 3 1 6 -16 6 -26 1 -33 -3 -36 -24z"/>
<path d="M1930 1486 c0 -17 6 -26 20 -28 25 -4 22 -23 -3 -22 -10 0 -16 -4
-14 -10 2 -6 15 -11 28 -11 19 0 25 6 27 28 3 22 -1 30 -17 34 -28 7 -27 21 2
26 16 3 13 5 -10 6 -29 1 -33 -2 -33 -23z"/>
<path d="M1135 1417 c3 -10 5 -29 5 -41 0 -21 5 -23 60 -24 58 -2 60 -1 60 23
0 27 -13 31 -54 15 -32 -12 -50 -5 -65 23 -8 14 -10 16 -6 4z"/>
<path d="M1429 1384 c-1 -29 -1 -29 -9 -4 l-8 25 -1 -27 c-1 -31 25 -39 32
-10 4 14 5 14 6 1 1 -11 11 -16 31 -17 24 0 30 4 30 20 0 16 -5 19 -22 15 -14
-4 -29 0 -40 10 -17 15 -18 14 -19 -13z"/>
<path d="M1300 1370 c0 -11 7 -20 15 -20 8 0 15 7 15 15 0 21 18 19 23 -2 4
-14 5 -12 6 5 1 18 -4 22 -29 22 -23 0 -30 -4 -30 -20z"/>
<path d="M1350 1285 c-9 -11 -10 -19 -3 -26 7 -7 14 -5 23 6 9 11 10 19 3 26
-7 7 -14 5 -23 -6z"/>
<path d="M834 1245 c-4 -9 -4 -19 0 -22 3 -3 1 -12 -5 -20 -6 -7 -8 -13 -3
-13 4 0 -5 -13 -21 -30 -16 -16 -24 -30 -17 -30 6 0 14 5 18 11 5 8 10 6 16
-5 7 -13 13 -14 23 -6 16 13 8 43 -9 33 -6 -4 -5 1 3 10 17 21 31 22 31 2 0
-19 14 -19 29 -1 13 16 -2 32 -19 21 -5 -3 -10 -1 -10 6 0 10 -3 10 -12 1 -7
-7 -17 -12 -22 -12 -6 0 2 10 17 23 27 22 28 22 7 35 -17 10 -21 10 -26 -3z"/>
<path d="M940 1145 c-7 -9 -11 -18 -8 -20 3 -3 11 1 18 10 7 9 11 18 8 20 -3
3 -11 -1 -18 -10z"/>
<path d="M880 1130 c0 -15 5 -20 18 -18 9 2 17 10 17 18 0 8 -8 16 -17 18 -13
2 -18 -3 -18 -18z"/>
<path d="M725 1090 c-21 -22 -34 -40 -29 -40 6 0 23 14 39 30 27 29 31 30 42
13 12 -16 14 -16 30 0 15 15 15 17 -11 27 -15 5 -28 10 -30 10 -1 0 -20 -18
-41 -40z"/>
<path d="M837 1103 c-10 -9 -9 -43 1 -43 15 0 30 22 25 36 -6 15 -16 18 -26 7z"/>
<path d="M737 1073 c-10 -9 -8 -43 2 -43 5 0 14 6 20 14 8 10 8 16 -2 25 -8 6
-17 8 -20 4z"/>
<path d="M794 1049 c-10 -17 13 -36 27 -22 12 12 4 33 -11 33 -5 0 -12 -5 -16
-11z"/>
<path d="M687 1033 c-10 -9 -9 -43 1 -43 15 0 30 22 25 36 -6 15 -16 18 -26 7z"/>
<path d="M756 792 c-2 -4 -1 -14 4 -22 7 -11 11 -11 24 -1 9 8 16 17 16 22 0
11 -37 12 -44 1z"/>
<path d="M910 790 c-8 -5 -9 -13 -3 -24 8 -15 11 -15 27 2 14 16 14 21 3 25
-8 3 -20 2 -27 -3z"/>
<path d="M830 777 c0 -21 12 -28 27 -16 19 16 16 29 -7 29 -11 0 -20 -6 -20
-13z"/>
<path d="M953 755 c-3 -9 -3 -18 -1 -21 9 -9 38 8 38 22 0 19 -29 18 -37 -1z"/>
<path d="M872 731 c-17 -10 2 -33 21 -25 9 3 17 10 17 14 0 12 -25 19 -38 11z"/>
<path d="M794 719 c-11 -19 13 -34 31 -19 13 11 13 15 3 21 -18 12 -26 11 -34
-2z"/>
<path d="M930 700 c-8 -5 -9 -13 -3 -24 8 -15 11 -15 27 2 14 16 14 21 3 25
-8 3 -20 2 -27 -3z"/>
<path d="M1154 1189 c-3 -6 -1 -16 5 -22 9 -9 14 -8 21 3 5 8 10 18 10 23 0
11 -28 8 -36 -4z"/>
<path d="M1184 1159 c-3 -6 -2 -15 4 -21 13 -13 32 -2 32 18 0 16 -26 19 -36
3z"/>
<path d="M1153 1133 c-7 -2 -13 -11 -13 -20 0 -20 34 -12 38 10 3 17 -3 20
-25 10z"/>
<path d="M1185 1100 c-7 -12 2 -30 15 -30 5 0 14 9 20 20 9 17 8 20 -9 20 -11
0 -23 -4 -26 -10z"/>
<path d="M1044 1133 c-13 -4 -7 -43 6 -43 4 0 13 6 19 14 13 15 -5 36 -25 29z"/>
<path d="M987 1124 c-14 -14 -7 -35 11 -32 9 2 17 10 17 17 0 16 -18 25 -28
15z"/>
<path d="M1027 1060 c6 -23 16 -25 32 -7 13 16 5 27 -20 27 -12 0 -16 -6 -12
-20z"/>
<path d="M913 935 c-7 -20 2 -29 21 -22 9 4 13 13 10 22 -8 19 -23 19 -31 0z"/>
<path d="M976 941 c-4 -5 -3 -16 0 -25 5 -12 10 -14 20 -6 7 7 10 18 7 26 -6
16 -19 18 -27 5z"/>
<path d="M884 885 c-3 -8 -3 -19 1 -25 10 -16 35 7 28 26 -7 18 -22 18 -29 -1z"/>
<path d="M994 885 c-3 -8 -3 -19 1 -25 10 -16 35 7 28 26 -7 18 -22 18 -29 -1z"/>
<path d="M944 875 c-3 -8 -3 -19 1 -25 10 -16 35 7 28 26 -7 18 -22 18 -29 -1z"/>
<path d="M806 872 c-2 -4 -1 -14 4 -22 7 -11 12 -12 21 -3 6 6 8 16 5 22 -8
13 -23 14 -30 3z"/>
<path d="M1324 1039 c-3 -6 -2 -15 4 -21 13 -13 32 -2 32 18 0 16 -26 19 -36
3z"/>
<path d="M1301 986 c-9 -10 -9 -16 -1 -21 12 -7 40 11 40 26 0 14 -26 10 -39
-5z"/>
<path d="M1312 931 c-13 -8 -6 -41 8 -41 4 0 13 6 19 14 14 17 -8 39 -27 27z"/>
<path d="M1310 873 c0 -5 5 -15 10 -23 7 -11 12 -12 21 -3 6 6 8 16 5 22 -8
12 -36 15 -36 4z"/>
<path d="M1832 1018 c5 -15 28 -18 29 -3 0 6 -7 12 -17 13 -10 3 -15 -1 -12
-10z"/>
<path d="M1753 910 c-26 -11 -30 -32 -8 -50 20 -17 45 3 45 36 0 26 -4 27 -37
14z"/>
<path d="M711 921 c-9 -6 -10 -14 -4 -25 7 -14 12 -14 27 -3 15 11 16 15 4 24
-8 7 -19 8 -27 4z"/>
<path d="M1100 946 c0 -8 4 -17 9 -20 11 -7 33 18 24 27 -12 12 -33 7 -33 -7z"/>
<path d="M1185 950 c-3 -5 -2 -17 3 -26 8 -14 10 -14 21 0 13 15 8 36 -9 36
-5 0 -12 -4 -15 -10z"/>
<path d="M1134 905 c-3 -8 -3 -19 1 -25 10 -16 35 7 28 26 -7 18 -22 18 -29
-1z"/>
<path d="M1194 885 c-3 -8 -3 -19 1 -25 10 -16 35 7 28 26 -7 18 -22 18 -29
-1z"/>
<path d="M1087 864 c-9 -10 -9 -44 1 -44 4 0 14 5 22 10 13 8 13 11 -1 25 -8
8 -18 12 -22 9z"/>
<path d="M1164 843 c-13 -4 -7 -43 6 -43 4 0 13 6 19 14 13 15 -5 36 -25 29z"/>
<path d="M1070 776 c0 -21 21 -31 31 -15 14 22 11 29 -11 29 -11 0 -20 -6 -20
-14z"/>
<path d="M1140 766 c0 -21 21 -31 31 -15 14 22 11 29 -11 29 -11 0 -20 -6 -20
-14z"/>
<path d="M1214 759 c-7 -12 15 -31 28 -23 4 3 8 12 8 20 0 17 -26 19 -36 3z"/>
<path d="M1067 714 c-14 -14 -7 -35 11 -32 9 2 17 10 17 17 0 16 -18 25 -28
15z"/>
<path d="M1134 705 c-3 -8 -3 -19 1 -25 10 -16 35 7 28 26 -7 18 -22 18 -29
-1z"/>
<path d="M1203 713 c-14 -5 -17 -29 -5 -37 4 -2 14 -1 21 3 16 11 2 40 -16 34z"/>
<path d="M1046 642 c-8 -13 11 -35 23 -28 16 10 14 36 -3 36 -8 0 -17 -4 -20
-8z"/>
<path d="M1130 630 c0 -22 7 -25 29 -11 16 10 6 31 -15 31 -8 0 -14 -9 -14
-20z"/>
<path d="M1214 625 c-4 -9 -4 -18 -2 -21 9 -8 39 8 35 19 -6 18 -27 20 -33 2z"/>
<path d="M1327 804 c-14 -14 -7 -35 11 -32 9 2 17 10 17 17 0 16 -18 25 -28
15z"/>
<path d="M1330 730 c0 -22 7 -25 29 -11 16 10 6 31 -15 31 -8 0 -14 -9 -14
-20z"/>
<path d="M1345 590 c-3 -5 -2 -17 3 -26 8 -14 10 -14 21 0 13 15 8 36 -9 36
-5 0 -12 -4 -15 -10z"/>
<path d="M1363 485 c-7 -20 2 -29 21 -22 9 4 13 13 10 22 -8 19 -23 19 -31 0z"/>
<path d="M1240 540 c0 -22 7 -25 29 -11 16 10 6 31 -15 31 -8 0 -14 -9 -14
-20z"/>
<path d="M2040 2449 c-81 -63 -77 -58 -61 -69 8 -5 21 -4 32 3 24 15 73 -17
66 -43 -4 -17 18 -49 27 -39 2 2 11 41 21 87 13 65 14 86 5 98 -7 7 -15 14
-19 13 -3 0 -35 -23 -71 -50z m54 -33 c-5 -21 -9 -24 -20 -15 -12 10 -12 15 2
30 21 24 27 19 18 -15z"/>
<path d="M2175 2350 c-43 -46 -55 -64 -46 -73 8 -8 20 -2 47 24 l36 34 -6 -40
c-4 -22 -10 -50 -13 -62 -3 -16 0 -25 12 -30 24 -9 128 106 113 124 -7 9 -17
3 -40 -23 -16 -18 -33 -34 -37 -34 -5 0 -1 25 6 56 13 48 13 59 1 70 -12 12
-23 6 -73 -46z"/>
<path d="M455 2310 c-4 -6 10 -26 32 -46 l38 -34 -49 6 c-76 10 -80 10 -83 -6
-2 -8 23 -38 56 -67 48 -42 61 -50 70 -39 9 11 4 20 -24 44 -19 17 -35 33 -35
35 0 2 25 -1 55 -6 45 -9 59 -8 70 4 12 12 6 21 -46 64 -69 57 -75 60 -84 45z"/>
<path d="M2303 2227 c-34 -29 -60 -56 -59 -62 6 -23 35 -11 89 38 48 43 56 55
45 65 -11 9 -26 1 -75 -41z"/>
<path d="M2363 2179 c-72 -54 -78 -85 -24 -133 26 -23 51 -17 114 30 39 28 46
38 37 49 -10 12 -20 8 -61 -21 -53 -39 -82 -41 -87 -7 -2 16 9 29 45 54 26 18
50 34 52 36 3 2 -2 10 -10 17 -12 12 -21 8 -66 -25z"/>
<path d="M306 2115 c-8 -21 94 -159 107 -146 7 7 7 18 0 33 -14 30 17 79 46
71 18 -5 39 13 28 24 -8 7 -125 32 -153 33 -12 0 -24 -7 -28 -15z m87 -31 c7
-7 -2 -34 -12 -34 -3 0 -12 9 -19 20 -10 17 -10 20 6 20 10 0 21 -3 25 -6z"/>
<path d="M256 2034 c-4 -9 0 -27 9 -40 23 -35 19 -44 -19 -44 -29 0 -46 -13
-46 -35 0 -2 24 -1 53 2 39 4 62 1 86 -12 28 -14 35 -14 42 -3 13 21 11 25
-22 38 -19 8 -43 32 -61 62 -16 26 -31 48 -33 48 -1 0 -6 -7 -9 -16z"/>
<path d="M2453 2024 c-42 -21 -60 -64 -43 -103 17 -43 45 -65 72 -57 46 12 51
20 33 55 -18 35 -42 37 -37 3 4 -24 -8 -28 -26 -10 -31 31 1 88 51 88 30 0 41
-14 42 -55 0 -43 29 -40 33 3 3 25 -3 39 -27 62 -33 34 -52 36 -98 14z"/>
<path d="M238 1853 c-91 -5 -97 -22 -26 -86 71 -64 87 -72 94 -52 4 9 -1 21
-10 28 -23 17 -4 75 27 79 31 4 36 39 5 36 -13 -1 -53 -3 -90 -5z m25 -53 c-3
-11 -9 -20 -13 -20 -4 0 -15 9 -25 20 -18 20 -17 20 13 20 25 0 29 -3 25 -20z"/>
<path d="M2460 1818 c0 -12 8 -18 23 -18 30 0 56 -59 32 -73 -15 -8 -21 -47
-7 -47 4 0 38 25 75 56 55 47 65 59 57 74 -8 15 -25 19 -95 22 -76 3 -85 1
-85 -14z m130 -26 c0 -4 -9 -13 -20 -20 -11 -7 -20 -10 -20 -8 0 2 -3 11 -6
20 -5 12 0 16 20 16 14 0 26 -3 26 -8z"/>
<path d="M132 1688 c-12 -16 -32 -107 -23 -112 13 -8 153 -28 158 -23 6 7 22
76 23 99 0 10 -11 25 -24 33 -20 13 -29 14 -46 5 -16 -9 -25 -9 -33 -1 -15 15
-42 14 -55 -1z m48 -59 c0 -19 -5 -29 -15 -29 -21 0 -29 24 -15 49 14 28 30
18 30 -20z m72 19 c9 -25 -4 -58 -23 -58 -19 0 -25 23 -13 54 7 19 31 21 36 4z"/>
<path d="M2588 1672 c-57 -10 -78 -18 -78 -29 0 -13 9 -15 53 -10 l52 6 -43
-40 c-25 -23 -42 -48 -40 -57 2 -10 5 -17 8 -16 109 14 161 29 157 43 -2 9 -7
15 -13 15 -5 -1 -29 -5 -52 -9 l-44 -7 46 42 c43 40 56 64 39 73 -5 2 -43 -3
-85 -11z"/>
<path d="M150 1298 c0 -21 -6 -29 -25 -34 -30 -7 -32 -20 -5 -27 14 -3 20 -14
20 -31 0 -32 13 -33 32 -5 12 18 18 20 35 11 27 -15 37 -3 16 20 -15 17 -15
19 2 38 22 25 16 33 -16 22 -18 -7 -27 -4 -41 12 l-17 21 -1 -27z"/>
<path d="M2630 1300 c-9 -16 -15 -18 -37 -9 -34 12 -41 4 -18 -21 17 -19 17
-21 2 -38 -21 -23 -11 -35 16 -20 17 9 23 7 35 -11 19 -28 32 -27 32 3 0 16 7
27 20 31 11 3 20 10 20 15 0 4 -9 10 -20 13 -14 3 -20 14 -20 31 0 31 -15 34
-30 6z"/>
<path d="M2477 994 c-14 -14 -6 -24 41 -45 l47 -22 -56 -7 c-103 -13 -106 -34
-10 -74 75 -32 84 -33 89 -16 2 6 -14 18 -37 28 -50 21 -52 32 -7 32 45 0 86
16 86 33 0 8 -30 27 -67 43 -37 16 -70 30 -73 32 -3 1 -9 -1 -13 -4z"/>
<path d="M258 918 c-38 -17 -68 -34 -68 -38 0 -22 43 -100 55 -100 19 0 19 2
0 47 -8 20 -14 37 -13 39 2 1 29 14 61 28 34 15 57 31 55 38 -7 20 -20 18 -90
-14z"/>
<path d="M2384 807 c-7 -19 -3 -26 56 -100 33 -42 47 -54 57 -45 10 8 10 14
-1 30 -12 17 -12 24 2 49 12 21 22 27 36 23 16 -5 35 9 36 27 0 4 -24 9 -52
13 -29 4 -70 10 -90 13 -29 4 -39 2 -44 -10z m89 -33 c8 -8 -3 -34 -14 -34 -4
0 -13 9 -19 20 -9 17 -8 20 8 20 10 0 21 -3 25 -6z"/>
<path d="M325 789 c-22 -5 -50 -11 -62 -14 -31 -7 -19 -38 12 -33 29 6 63 -45
46 -66 -11 -13 -5 -46 8 -46 14 1 102 142 97 155 -6 17 -40 18 -101 4z m43
-48 c-9 -15 -15 -17 -25 -9 -20 16 -15 28 12 28 22 0 24 -2 13 -19z"/>
<path d="M2354 752 c-8 -12 -7 -26 3 -50 l13 -32 -42 2 c-32 2 -43 -1 -46 -13
-2 -13 8 -17 53 -21 38 -3 62 -11 78 -26 28 -26 33 -27 41 -6 4 10 -5 24 -23
39 -17 15 -33 43 -41 70 -15 53 -22 60 -36 37z"/>
<path d="M401 661 l-61 -49 42 -53 c51 -65 58 -70 81 -63 27 9 69 -33 57 -56
-7 -13 -5 -22 5 -30 19 -16 15 -21 52 75 25 65 29 82 18 93 -10 12 -26 8 -90
-22 -86 -40 -89 -41 -79 -25 3 6 -4 25 -16 42 l-23 30 24 20 c13 11 37 30 53
42 25 20 29 45 7 45 -5 0 -36 -22 -70 -49z m152 -141 c-6 -22 -11 -24 -32 -11
-11 7 -10 11 5 20 27 15 33 14 27 -9z"/>
<path d="M2234 605 c-4 -8 10 -49 30 -91 30 -64 38 -74 51 -64 10 9 12 17 5
30 -13 23 30 65 58 56 11 -4 24 -1 31 8 9 11 -2 19 -66 45 -88 35 -101 37
-109 16z m70 -38 c15 -11 16 -15 3 -25 -11 -10 -16 -7 -25 13 -13 28 -5 32 22
12z"/>
<path d="M591 458 c-25 -64 -29 -83 -19 -90 19 -12 21 -11 65 27 23 19 44 35
47 35 3 0 -4 -19 -14 -42 -22 -49 -25 -74 -9 -84 11 -6 18 -2 99 65 l41 33
-37 -62 c-32 -55 -39 -90 -17 -90 4 0 27 33 49 72 l41 73 -30 18 c-29 18 -30
18 -56 -5 -60 -54 -63 -55 -40 -3 11 25 18 53 15 61 -9 23 -40 16 -71 -16 -40
-41 -49 -38 -25 10 23 46 25 66 6 73 -9 4 -23 -19 -45 -75z"/>
<path d="M2123 508 c-28 -31 -34 -54 -23 -82 30 -80 127 -89 165 -16 14 28 14
32 -2 55 -22 30 -31 30 -62 4 -18 -15 -21 -23 -13 -31 8 -8 15 -8 26 1 22 19
31 -6 10 -30 -23 -25 -46 -24 -72 4 -36 38 -23 80 25 83 17 0 29 7 31 17 5 27
-60 23 -85 -5z"/>
<path d="M1986 412 c-4 -7 18 -137 30 -171 7 -21 36 8 29 29 -8 26 42 57 67
41 15 -9 23 -9 34 0 12 10 2 20 -55 60 -67 47 -94 58 -105 41z m67 -79 c-19
-15 -18 -16 -27 20 l-7 29 25 -19 c23 -16 23 -19 9 -30z"/>
<path d="M853 360 c-26 -11 -53 -59 -53 -95 0 -66 113 -106 138 -50 7 14 12
30 12 34 0 8 -44 31 -60 31 -16 0 -11 -22 8 -36 16 -12 16 -13 0 -19 -44 -17
-73 24 -53 73 12 26 20 32 45 32 20 0 33 -6 37 -17 12 -34 43 -44 43 -15 0 42
-73 80 -117 62z"/>
<path d="M1852 340 c-26 -24 -29 -68 -7 -109 25 -50 91 -57 124 -15 26 34 27
54 1 54 -13 0 -20 -7 -20 -19 0 -21 -28 -35 -53 -26 -8 4 -21 20 -28 37 -17
41 -2 63 42 63 48 0 47 29 -1 33 -25 2 -42 -3 -58 -18z"/>
<path d="M986 238 c-47 -62 -52 -74 -39 -82 11 -6 20 -4 29 9 18 24 74 12 74
-16 0 -19 25 -37 36 -26 3 3 2 42 -2 86 -5 64 -11 84 -25 91 -15 9 -27 -1 -73
-62z m64 -13 c0 -27 -1 -28 -24 -19 -12 5 -13 9 -3 25 16 26 27 24 27 -6z"/>
<path d="M1135 268 c-9 -30 -26 -151 -21 -155 13 -13 36 9 36 34 0 54 15 55
34 2 17 -47 39 -70 53 -55 6 6 32 128 33 154 0 6 -6 12 -14 12 -15 0 -19 -10
-32 -70 l-7 -34 -19 49 c-28 70 -52 95 -63 63z"/>
<path d="M1603 270 c-58 -24 -68 -109 -16 -150 31 -24 63 -26 105 -4 27 14 30
19 25 51 -4 20 -7 37 -9 38 -2 1 -18 0 -35 -2 -36 -6 -46 -33 -13 -33 23 0 26
-10 8 -28 -29 -29 -78 3 -78 50 0 37 22 51 70 43 45 -8 53 5 18 29 -25 18 -42
19 -75 6z"/>
<path d="M1499 253 c0 -4 0 -30 1 -58 l1 -50 -37 53 c-53 75 -70 68 -65 -28 4
-84 6 -90 28 -90 13 0 15 9 9 52 l-6 53 22 -30 c48 -62 63 -75 77 -66 11 7 12
24 5 87 -5 46 -14 79 -21 82 -7 2 -13 0 -14 -5z"/>
</g>
</svg>
